<?xml version="1.0" encoding="UTF-8" standalone="no"?>
<svg
   id="Letters"
   viewBox="0 0 788.86188 100"
   version="1.1"
   width="788.86188"
   height="100"
   xmlns="http://www.w3.org/2000/svg"
   xmlns:svg="http://www.w3.org/2000/svg">
  <defs
     id="defs307">
    <style
       id="style305">
      .cls-1 {
        fill: #fdba17;
      }

      .cls-2 {
        fill: #34c6f4;
      }
    </style>
  </defs>
  <path
     class="cls-1"
     d="m 82.496204,0.40971 v 59.13505 c 0,12.8604 -3.573596,22.81487 -10.713202,29.87102 C 64.63581,96.47192 54.339908,100 40.887707,100 27.435507,100 17.640364,96.57055 10.584218,89.71927 3.5280727,82.86798 0,73.01213 0,60.15174 V 0.40971 h 26.176024 v 57.65553 c 0,6.94235 1.274658,11.98786 3.823975,15.1214 2.549317,3.13353 6.305007,4.7041 11.274658,4.7041 5.318664,0 9.17299,-1.55538 11.570562,-4.67375 2.397572,-3.11077 3.596358,-8.2094 3.596358,-15.28831 V 0.40971 h 26.047039 z"
     id="path309"
     style="stroke-width:0.758726" />
  <path
     class="cls-2"
     d="m 256.15326,47.44309 c 0,16.39606 -4.43096,29.02884 -13.28529,37.89834 -8.86191,8.86949 -21.31259,13.30804 -37.35963,13.30804 h -31.1912 V 0.40213 h 33.36874 c 15.478,0 27.42033,4.02883 35.84219,12.09408 8.41426,8.06525 12.62519,19.71168 12.62519,34.94688 z m -27.03339,0.94082 c 0,-9.00607 -1.74507,-15.68285 -5.2428,-20.02276 -3.49772,-4.3475 -8.80121,-6.51745 -15.92564,-6.51745 h -7.58725 v 55.03794 h 5.80426 c 7.91349,0 13.71775,-2.33687 17.41274,-7.0258 3.69499,-4.68134 5.53869,-11.83611 5.53869,-21.47193 z"
     id="path311"
     style="stroke-width:0.758726" />
  <path
     class="cls-2"
     d="M 327.04096,98.64947 322.29134,80.2352 h -31.32018 l -4.8786,18.41427 H 257.47343 L 288.93019,0 h 34.74961 l 31.8513,98.64947 z m -10.15175,-40.1821 -4.15781,-16.1305 c -0.97117,-3.58118 -2.1396,-8.21699 -3.52807,-13.90743 -1.38847,-5.69045 -2.29894,-9.7648 -2.739,-12.23065 -0.39454,2.28376 -1.17602,6.04704 -2.34446,11.28983 -1.16844,5.24279 -3.7481,15.56904 -7.74659,30.97875 h 20.50835 z"
     id="path313"
     style="stroke-width:0.758726" />
  <path
     class="cls-2"
     d="m 442.38238,0.40971 v 59.13505 c 0,12.8604 -3.57359,22.81487 -10.7132,29.87102 C 424.52199,96.47192 414.22609,100 400.77389,100 387.32168,100 377.52654,96.57055 370.47039,89.71927 363.41425,82.86798 359.88618,73.01213 359.88618,60.15174 V 0.40971 h 26.17602 v 57.65553 c 0,6.94235 1.27466,11.98786 3.82397,15.1214 2.54932,3.13353 6.30502,4.7041 11.27467,4.7041 5.31866,0 9.17298,-1.55538 11.57056,-4.67375 2.39757,-3.11077 3.59636,-8.2094 3.59636,-15.28831 V 0.40971 h 26.04703 z"
     id="path315"
     style="stroke-width:0.758726" />
  <path
     class="cls-2"
     d="M 548.88465,98.64947 H 514.72684 L 479.5144,29.43855 h -0.5918 c 0.8346,10.8877 1.2519,19.19574 1.2519,24.93171 V 98.65705 H 457.09407 V 0.40971 h 34.02883 l 35.08345,68.2701 h 0.39454 c -0.61457,-9.90136 -0.92565,-17.8528 -0.92565,-23.85431 V 0.40971 h 23.20941 v 98.24734 z"
     id="path317"
     style="stroke-width:0.758726" />
  <path
     class="cls-2"
     d="M 606.7147,98.64947 H 580.66766 V 22.10925 H 557.12441 V 0.40213 h 73.06525 V 22.10925 H 606.7147 Z"
     id="path319"
     style="stroke-width:0.758726" />
  <path
     class="cls-2"
     d="M 695.67524,98.64947 H 638.437 V 0.40213 h 57.23824 v 21.30501 h -31.19119 v 15.45522 h 28.88467 v 21.30501 h -28.88467 v 18.54325 h 31.19119 z"
     id="path321"
     style="stroke-width:0.758726" />
  <path
     class="cls-2"
     d="m 788.86189,47.44309 c 0,16.39606 -4.43096,29.02884 -13.28529,37.89834 -8.8619,8.86949 -21.31259,13.30804 -37.35963,13.30804 h -31.1912 V 0.40213 h 33.36875 c 15.47799,0 27.42033,4.02883 35.84217,12.09408 8.42186,8.06525 12.6252,19.71168 12.6252,34.94688 z m -27.03338,0.94082 c 0,-9.00607 -1.74508,-15.68285 -5.2428,-20.02276 -3.49772,-4.3475 -8.80121,-6.51745 -15.92564,-6.51745 h -7.58725 v 55.03794 h 5.80424 c 7.91351,0 13.71776,-2.33687 17.41274,-7.0258 3.695,-4.68134 5.53871,-11.83611 5.53871,-21.47193 z"
     id="path323"
     style="stroke-width:0.758726" />
  <path
     class="cls-1"
     d="M 140.86494,98.649454 105.6525,29.438531 h -0.59181 c 0.8346,10.887708 1.2519,19.19575 1.2519,24.931714 v 44.286796"
     id="path327"
     style="stroke-width:0.758725" />
  <path
     class="cls-1"
     d="M 116.49468,0.40970058 151.57814,68.679804 h 0.39454 C 151.35811,58.778439 151.04703,50.826997 151.04703,44.82548 V 0.40970058"
     id="path330"
     style="stroke-width:0.758725" />
</svg>
